<svg xmlns="http://www.w3.org/2000/svg" xmlns:xlink="http://www.w3.org/1999/xlink" width="100" height="100" viewBox="0 0 100 100"><g><g transform="translate(50 50) scale(0.69 0.69) rotate(0) translate(-50 -50)" style="fill:#3e3a40"><svg fill="#3e3a40" xmlns="http://www.w3.org/2000/svg" xmlns:xlink="http://www.w3.org/1999/xlink" xml:space="preserve" version="1.1" style="shape-rendering:geometricPrecision;text-rendering:geometricPrecision;image-rendering:optimizeQuality;" viewBox="0 0 6256 9972" x="0px" y="0px" fill-rule="evenodd" clip-rule="evenodd"><defs><style type="text/css">
   
    .fil0 {fill:#3e3a40;fill-rule:nonzero}
   
  </style></defs><g><path class="fil0" d="M0 583c0,-321 262,-583 583,-583l5089 0c321,0 584,262 584,583l0 8805c0,321 -263,584 -584,584l-5089 0c-321,0 -583,-263 -583,-584l0 -8805zm6089 8388l-5922 0 0 417c0,229 187,417 416,417l5089 0c229,0 417,-188 417,-417l0 -417zm0 -7804l-5922 0 0 7638 5922 0 0 -7638zm-417 -1000l-5089 0c-229,0 -416,187 -416,416l0 418 5922 0 0 -418c0,-229 -188,-416 -417,-416z"></path><path class="fil0" d="M2491 312l1274 0c361,0 353,543 0,543l-1274 0c-362,0 -354,-543 0,-543zm1274 167l-1274 0c-140,0 -137,209 0,209l1274 0c139,0 136,-209 0,-209z"></path><path class="fil0" d="M2732 9131l791 0c342,0 335,514 0,514l-791 0c-341,0 -334,-514 0,-514zm791 167l-791 0c-120,0 -117,180 0,180l791 0c120,0 118,-180 0,-180z"></path></g></svg></g></g></svg>