<svg xmlns="http://www.w3.org/2000/svg" xmlns:xlink="http://www.w3.org/1999/xlink" width="100" height="100" viewBox="0 0 100 100"><g><g transform="translate(50 50) scale(0.69 0.69) rotate(0) translate(-50 -50)" style="fill:#3e3a40"><svg fill="#3e3a40" xmlns="http://www.w3.org/2000/svg" xmlns:xlink="http://www.w3.org/1999/xlink" version="1.1" x="0px" y="0px" viewBox="0 0 56 56" style="enable-background:new 0 0 56 56;" xml:space="preserve"><path d="M53,22.4599609c0-0.0333252-0.0187988-0.0620117-0.0220947-0.0947876  c-0.0083618-0.0927124-0.0281982-0.1804199-0.0628052-0.269104c-0.019043-0.0480347-0.0393677-0.0911865-0.0656128-0.1356812  c-0.020874-0.0360718-0.02771-0.0767212-0.0535889-0.1107788c-0.0374146-0.0492554-0.0894775-0.0773315-0.133606-0.1176147  c-0.020874-0.019104-0.0302734-0.0471191-0.0529175-0.0645142l-8.2392578-6.3395996V6.0375977  C44.3701172,4.362793,43.0068359,3,41.3320312,3H20.9169922c-0.0223999,0-0.0410767,0.0112915-0.0630493,0.0127563  c-0.0897217,0.0057373-0.1759644,0.0232544-0.2609863,0.0526733c-0.03302,0.0114746-0.0655518,0.0197754-0.0969238,0.0344849  C20.3937378,3.147644,20.296936,3.2079468,20.213501,3.2903442c-0.0013428,0.0013428-0.0030518,0.0021362-0.0043945,0.003479  l-8.2855835,8.2855835c-0.0015259,0.0015259-0.0023193,0.003479-0.0038452,0.0050049  c-0.0824585,0.083374-0.1428223,0.1802979-0.1906128,0.2828369c-0.0141602,0.0302124-0.0222168,0.0617065-0.0333252,0.0934448  c-0.0302124,0.0864868-0.0480347,0.1744385-0.0536499,0.2658691c-0.0013428,0.0211182-0.012207,0.0390625-0.012207,0.0605469  v3.0407715L3.390625,21.6674805c-0.0228271,0.0175781-0.0322876,0.0457764-0.0533447,0.0650635  c-0.0440063,0.0401611-0.0958862,0.0680542-0.1331787,0.1170654c-0.0258179,0.0340576-0.0326538,0.074646-0.0535278,0.1107178  c-0.0262451,0.0445557-0.0466309,0.0878296-0.0657349,0.1359253c-0.0345459,0.088562-0.0543213,0.1761475-0.0626831,0.2687378  C3.0188599,22.3978882,3,22.4265747,3,22.4599609V52c0,0.130188,0.0265503,0.2598267,0.0770874,0.382019  c0.1013184,0.2446289,0.2961426,0.4395142,0.5408325,0.5408325C3.7401123,52.9733887,3.869812,53,4,53h48  c0.130188,0,0.2598877-0.0265503,0.3820801-0.0770874c0.244751-0.1013794,0.4395752-0.2962646,0.5408936-0.5410156  C52.9735107,52.2597656,53,52.130127,53,52V22.4599609z M44.3701172,17.850647l5.980835,4.6021118l-5.980835,4.5479126V17.850647z   M19.9169922,6.4140625v3.8354492c0,0.5722656-0.4648438,1.0375977-1.0371094,1.0375977h-3.8359375L19.9169922,6.4140625z   M13.6298828,13.2871094h5.25c1.6748047,0,3.0371094-1.362793,3.0371094-3.0375977V5h19.4150391  c0.5722656,0,1.0380859,0.465332,1.0380859,1.0375977v22.4839478L28.9003906,38.7641602  c-0.5292969,0.4033203-1.2714844,0.4033203-1.8007812,0L13.6298828,28.5215454V13.2871094z M11.6298828,17.850647v9.1500244  l-5.980835-4.5479126L11.6298828,17.850647z M5,24.4718018l14.2659912,10.8481445L5,49.5859375V24.4718018z M6.4140625,51  l14.4584351-14.4584351l5.0161743,3.8143921C26.5107422,40.8286133,27.2548828,41.0654297,28,41.0654297  s1.4902344-0.2368164,2.1113281-0.7094727l5.0161743-3.8143921L49.5859375,51H6.4140625z M51,49.5859375L36.7340088,35.3199463  L51,24.4718018V49.5859375z"></path><path d="M24.5761719,9.6635742h15c0.5527344,0,1-0.4477539,1-1s-0.4472656-1-1-1h-15c-0.5527344,0-1,0.4477539-1,1  S24.0234375,9.6635742,24.5761719,9.6635742z"></path><path d="M16.9580078,16.559082h22.6181641c0.5527344,0,1-0.4477539,1-1s-0.4472656-1-1-1H16.9580078c-0.5527344,0-1,0.4477539-1,1  S16.4052734,16.559082,16.9580078,16.559082z"></path><path d="M40.5761719,22.4550781c0-0.5522461-0.4472656-1-1-1H16.9580078c-0.5527344,0-1,0.4477539-1,1s0.4472656,1,1,1h22.6181641  C40.1289062,23.4550781,40.5761719,23.0073242,40.5761719,22.4550781z"></path><path d="M35.4169922,29.3510742c0-0.5522461-0.4472656-1-1-1H21.5830078c-0.5527344,0-1,0.4477539-1,1s0.4472656,1,1,1h12.8339844  C34.9697266,30.3510742,35.4169922,29.9033203,35.4169922,29.3510742z"></path></svg></g></g></svg>