<svg xmlns="http://www.w3.org/2000/svg" xmlns:xlink="http://www.w3.org/1999/xlink" width="100" height="100" viewBox="0 0 100 100"><g><g transform="translate(50 50) scale(0.69 0.69) rotate(0) translate(-50 -50)" style="fill:#3e3a40"><svg fill="#3e3a40" xmlns="http://www.w3.org/2000/svg" xmlns:xlink="http://www.w3.org/1999/xlink" version="1.1" x="0px" y="0px" viewBox="0 0 100 100" style="enable-background:new 0 0 100 100;" xml:space="preserve"><style type="text/css">
	.st0{display:none;}
	.st1{display:inline;fill:#3e3a40;}
	.st2{display:inline;fill:#3e3a40;}
	.st3{display:inline;fill:#3e3a40;}
	.st4{fill:#3e3a40;}
	.st5{fill:#3e3a40;}
	.st6{fill:#3e3a40;}
	.st7{clip-path:url(#SVGID_2_);fill:#3e3a40;}
	.st8{fill:#3e3a40;}
	.st9{clip-path:url(#SVGID_4_);fill:#3e3a40;}
	.st10{clip-path:url(#SVGID_6_);fill:#3e3a40;}
	.st11{fill:none;stroke:#3e3a40;stroke-width:3;stroke-linecap:round;stroke-miterlimit:10;}
</style><g class="st0"><rect x="-755" y="-157" class="st1" width="1253" height="1253"></rect></g><g><path d="M50,21c-11,0-19.9,8.9-19.9,19.9c0,2.9,0.4,5.2,1.3,7.1l13.1,27.7c1,2.1,3.1,3.5,5.5,3.5c2.4,0,4.5-1.3,5.5-3.4l13-27.7   c0.9-1.9,1.3-4.2,1.3-7.1C69.9,29.9,61,21,50,21z M65.7,46.6l-13,27.7c-0.5,1-1.5,1.7-2.7,1.7c-1.1,0-2.2-0.7-2.7-1.6L34.3,46.6   c-0.7-1.5-1-3.3-1-5.7c0-9.2,7.5-16.8,16.8-16.8c9.2,0,16.8,7.5,16.8,16.8C66.8,43.3,66.4,45.1,65.7,46.6z"></path><path d="M50,30.1c-5.9,0-10.7,4.8-10.7,10.7c0,5.9,4.8,10.7,10.7,10.7c5.9,0,10.7-4.8,10.7-10.7C60.7,34.9,55.9,30.1,50,30.1z    M50,48.4c-4.2,0-7.6-3.4-7.6-7.6c0-4.2,3.4-7.6,7.6-7.6c4.2,0,7.6,3.4,7.6,7.6C57.6,45,54.2,48.4,50,48.4z"></path></g></svg></g></g></svg>